<?xml version="1.0" standalone="no"?><!DOCTYPE svg PUBLIC "-//W3C//DTD SVG 1.1//EN" "http://www.w3.org/Graphics/SVG/1.1/DTD/svg11.dtd"><svg t="1704385528419" class="icon" viewBox="0 0 1024 1024" version="1.1" xmlns="http://www.w3.org/2000/svg" p-id="4272" xmlns:xlink="http://www.w3.org/1999/xlink" width="200" height="200"><path d="M512 128c212 0 384 172 384 384s-172 384-384 384-384-172-384-384 172-384 384-384m0-64C264.8 64 64 264.8 64 512s200.8 448 448 448 448-200.8 448-448S759.2 64 512 64z m226.4 322.4L512 613.6 285.6 386.4 240 432l226.4 226.4L512 704l45.6-45.6L784 432l-45.6-45.6z" p-id="4273"></path></svg>