<?xml version="1.0" standalone="no"?><!DOCTYPE svg PUBLIC "-//W3C//DTD SVG 1.1//EN" "http://www.w3.org/Graphics/SVG/1.1/DTD/svg11.dtd"><svg t="1666148264992" class="icon" viewBox="0 0 1024 1024" version="1.1" xmlns="http://www.w3.org/2000/svg" p-id="1367" xmlns:xlink="http://www.w3.org/1999/xlink" width="128" height="128"><path d="M498.894518 100.608396c-211.824383 0-409.482115 189.041494-409.482115 422.192601 0 186.567139 127.312594 344.783581 295.065226 400.602887 21.13025 3.916193 32.039717-9.17701 32.039717-20.307512 0-10.101055 1.176802-43.343157 1.019213-78.596056-117.448946 25.564235-141.394311-49.835012-141.394311-49.835012-19.225877-48.805566-46.503127-61.793368-46.503127-61.793368-38.293141-26.233478 3.13848-25.611308 3.13848-25.611308 42.361807 2.933819 64.779376 43.443441 64.779376 43.443441 37.669948 64.574714 98.842169 45.865607 122.912377 35.094286 3.815909-27.262924 14.764262-45.918819 26.823925-56.431244-93.796246-10.665921-192.323237-46.90017-192.323237-208.673623 0-46.071292 16.498766-83.747379 43.449581-113.332185-4.379751-10.665921-18.805298-53.544497 4.076852-111.732757 0 0 35.46063-11.336186 116.16265 43.296085 33.653471-9.330506 69.783343-14.022365 105.654318-14.174837 35.869952 0.153496 72.046896 4.844332 105.753579 14.174837 80.606853-54.631248 116.00813-43.296085 116.00813-43.296085 22.935362 58.18826 8.559956 101.120049 4.180206 111.732757 27.052123 29.584806 43.443441 67.260893 43.443441 113.332185 0 162.137751-98.798167 197.850114-192.799074 208.262254 15.151072 13.088086 28.65155 38.804794 28.65155 78.17957 0 56.484456-0.459464 101.94381-0.459464 115.854635 0 11.235902 7.573489 24.381293 29.014824 20.2543C825.753867 867.330798 933.822165 709.10924 933.822165 522.700713c0-233.155201-224.12657-422.192601-434.927647-422.192601L498.894518 100.608396z" p-id="1368"></path></svg>