<?xml version="1.0" standalone="no"?><!DOCTYPE svg PUBLIC "-//W3C//DTD SVG 1.1//EN" "http://www.w3.org/Graphics/SVG/1.1/DTD/svg11.dtd"><svg t="1704601938806" class="icon" viewBox="0 0 1024 1024" version="1.1" xmlns="http://www.w3.org/2000/svg" p-id="3773" xmlns:xlink="http://www.w3.org/1999/xlink" width="200" height="200"><path d="M141.26136359 113.13636387a25.56818179 25.56818179 0 0 1 14.4715913 4.49999972l542.94034021 373.03977254a25.56818179 25.56818179 0 0 1 0 42.16193208L155.78409075 906.31249973A25.56818179 25.56818179 0 0 1 115.69318179 885.24431847V138.70454565a25.56818179 25.56818179 0 0 1 25.5681818-25.56818178zM882.73863641 166.82954538a25.56818179 25.56818179 0 0 1 25.5681818 25.56818179v639.20454566a25.56818179 25.56818179 0 0 1-25.56818179 25.56818179h-51.13636359a25.56818179 25.56818179 0 0 1-25.5681818-25.56818179V192.39772717a25.56818179 25.56818179 0 0 1 25.5681818-25.56818179h51.13636359z" p-id="3774"></path></svg>