<?xml version="1.0" standalone="no"?><!DOCTYPE svg PUBLIC "-//W3C//DTD SVG 1.1//EN" "http://www.w3.org/Graphics/SVG/1.1/DTD/svg11.dtd"><svg t="1704702652534" class="icon" viewBox="0 0 1025 1024" version="1.1" xmlns="http://www.w3.org/2000/svg" p-id="4194" xmlns:xlink="http://www.w3.org/1999/xlink" width="200.1953125" height="200"><path d="M1013.64736 885.56544H11.13088c-6.12352 0-11.13088 5.00736-11.13088 11.14112v83.53792c0 6.12352 5.00736 11.14112 11.13088 11.14112h1002.50624c6.13376 0 11.14112-5.0176 11.14112-11.14112v-83.53792c0.01024-6.12352-4.99712-11.14112-11.13088-11.14112zM338.33984 253.00992h102.90176v471.04c0 6.12352 5.00736 11.14112 11.14112 11.14112h83.53792c6.12352 0 11.13088-5.0176 11.13088-11.14112v-471.04h103.17824c9.32864 0 14.47936-10.72128 8.76544-17.96096L503.06048 37.61152c-4.4544-5.71392-13.08672-5.71392-17.54112 0L329.5744 234.91584c-5.71392 7.3728-0.5632 18.09408 8.76544 18.09408z m0 0"  p-id="4195"></path></svg>