<?xml version="1.0" standalone="no"?><!DOCTYPE svg PUBLIC "-//W3C//DTD SVG 1.1//EN" "http://www.w3.org/Graphics/SVG/1.1/DTD/svg11.dtd"><svg t="1705475127646" class="icon" viewBox="0 0 1024 1024" version="1.1" xmlns="http://www.w3.org/2000/svg" p-id="5860" xmlns:xlink="http://www.w3.org/1999/xlink" width="200" height="200"><path d="M979.012267 595.968c14.472533 18.773333 23.074133 95.914667-32.221867 95.914667-44.6464 0-154.282667-46.6944-154.282667-139.0592s-122.88-351.163733-122.88-351.163734c153.258667 0 298.052267 6.007467 298.052267 196.8128 0.068267 0-3.140267 178.722133 11.332267 197.495467zM44.987733 595.968c-14.472533 18.773333-23.074133 95.914667 32.221867 95.914667 44.6464 0 154.282667-46.6944 154.282667-139.0592s122.88-351.163733 122.88-351.163734c-153.258667 0-298.052267 6.007467-298.052267 196.8128-0.068267 0 3.140267 178.722133-11.332267 197.495467z" fill="#915A31" p-id="5861"></path><path d="M814.216533 499.848533c0 323.037867-115.438933 419.976533-302.216533 419.976534s-302.216533-96.938667-302.216533-419.976534 169.096533-395.946667 302.216533-395.946666 302.216533 72.9088 302.216533 395.946666z" fill="#A06538" p-id="5862"></path><path d="M714.683733 831.419733c-45.738667 50.926933-110.592 75.093333-202.683733 75.093334s-157.013333-23.825067-202.683733-75.093334c20.0704-85.265067 54.613333-182.0672 95.982933-244.053333C457.386667 509.269333 474.385067 265.8304 461.6192 121.6512a333.892267 333.892267 0 0 1 100.7616 0C549.614933 265.8304 566.613333 509.269333 618.7008 587.093333c41.3696 62.2592 75.912533 159.061333 95.982933 244.3264z" fill="#D6D6D6" p-id="5863"></path><path d="M517.256533 814.626133c-21.7088 0-106.837333-111.2064-99.805866-128.6144s35.566933-34.133333 99.805866-34.133333 92.7744 16.520533 99.9424 34.133333S539.306667 814.626133 517.256533 814.626133z" fill="#333333" p-id="5864"></path><path d="M361.949867 512m-72.157867 0a72.157867 72.157867 0 1 0 144.315733 0 72.157867 72.157867 0 1 0-144.315733 0Z" fill="#FFFFFF" p-id="5865"></path><path d="M662.050133 512m-72.157866 0a72.157867 72.157867 0 1 0 144.315733 0 72.157867 72.157867 0 1 0-144.315733 0Z" fill="#FFFFFF" p-id="5866"></path><path d="M377.787733 512m-40.413866 0a40.413867 40.413867 0 1 0 80.827733 0 40.413867 40.413867 0 1 0-80.827733 0Z" p-id="5867"></path><path d="M646.212267 512m-40.413867 0a40.413867 40.413867 0 1 0 80.827733 0 40.413867 40.413867 0 1 0-80.827733 0Z" p-id="5868"></path></svg>