<?xml version="1.0" standalone="no"?><!DOCTYPE svg PUBLIC "-//W3C//DTD SVG 1.1//EN" "http://www.w3.org/Graphics/SVG/1.1/DTD/svg11.dtd"><svg t="1705479543818" class="icon" viewBox="0 0 1024 1024" version="1.1" xmlns="http://www.w3.org/2000/svg" p-id="4421" xmlns:xlink="http://www.w3.org/1999/xlink" width="200" height="200"><path d="M341.333333 618.666667l-179.2 174.933333C185.6 834.133333 149.333333 853.333333 149.333333 853.333333s-27.733333-34.133333-53.333333-64c-14.933333-17.066667-14.933333-40.533333 10.666667-64l149.333333-149.333333 106.666667 42.666667h-21.333334z m554.666667-296.533334s-44.8-12.8-64 17.066667v2.133333l-196.266667 21.333334 8.533334 85.333333 166.4-21.333333s27.733333 2.133333 42.666666-21.333334 42.666667-83.2 42.666667-83.2zM253.866667 541.866667c4.266667-10.666667-2.133333-23.466667-12.8-27.733334-4.266667-2.133333-93.866667-36.266667-93.866667-132.266666 0-12.8-8.533333-21.333333-21.333333-21.333334s-21.333333 8.533333-21.333334 21.333334c0 125.866667 106.666667 174.933333 113.066667 177.066666 2.133333 0 14.933333-2.133333 17.066667-2.133333 8.533333-2.133333 17.066667-6.4 19.2-14.933333zM597.333333 149.333333s-57.6-44.8-106.666666 0c0 0 42.666667 44.8 64 85.333334 93.866667-44.8 42.666667-85.333333 42.666666-85.333334z" fill="#844419" p-id="4422"></path><path d="M896 128m-42.666667 0a42.666667 42.666667 0 1 0 85.333334 0 42.666667 42.666667 0 1 0-85.333334 0Z" fill="#E91E63" p-id="4423"></path><path d="M917.333333 469.333333s-46.933333 53.333333-66.133333 76.8c-17.066667 17.066667-46.933333 4.266667-46.933333 4.266667l-147.2-46.933333c-12.8 17.066667-32 34.133333-59.733334 51.2-40.533333 27.733333-106.666667 51.2-172.8 66.133333L341.333333 746.666667l-42.666666 128c38.4 2.133333 42.666667 42.666667 42.666666 42.666666s-61.866667 4.266667-85.333333 0-51.2-32-42.666667-64l55.466667-183.466666c-6.4-12.8-17.066667-29.866667-34.133333-51.2-59.733333-74.666667 21.333333-128 21.333333-128s206.933333-134.4 256-170.666667c32-23.466667 40.533333-61.866667 42.666667-85.333333 93.866667-44.8 42.666667-85.333333 42.666666-85.333334s-2.133333-2.133333-4.266666-2.133333c12.8-8.533333 27.733333-14.933333 46.933333-19.2 49.066667-12.8 49.066667 21.333333 149.333333 21.333333 49.066667 0 10.666667 83.2-42.666666 106.666667-36.266667 14.933333-85.333333 49.066667-85.333334 85.333333 0 17.066667 17.066667 44.8 21.333334 81.066667l168.533333 49.066667s2.133333-4.266667 4.266667-4.266667c34.133333-25.6 61.866667 2.133333 61.866666 2.133333zM522.666667 185.6c23.466667-19.2 49.066667-40.533333 70.4-40.533333l-12.8-6.4c-21.333333-10.666667-57.6-19.2-89.6 10.666666 0 0-34.133333 44.8-17.066667 61.866667 8.533333 8.533333 27.733333-6.4 49.066667-25.6z" fill="#CC6C25" p-id="4424"></path><path d="M789.333333 149.333333h-21.333333s10.666667 34.133333 38.4 42.666667c8.533333-23.466667 6.4-42.666667-17.066667-42.666667z" fill="#5D4037" p-id="4425"></path><path d="M704 170.666667c0 12.8-8.533333 21.333333-21.333333 21.333333s-21.333333-21.333333-21.333334-21.333333 8.533333-21.333333 21.333334-21.333334 21.333333 8.533333 21.333333 21.333334z" fill="#3E2723" p-id="4426"></path></svg>